<?xml version="1.0" encoding="UTF-8" standalone="no"?>
<!-- Created with Inkscape (http://www.inkscape.org/) -->

<svg
   width="587.52448mm"
   height="257.89169mm"
   viewBox="0 0 587.52448 257.89169"
   version="1.1"
   id="svg1"
   xml:space="preserve"
   xmlns="http://www.w3.org/2000/svg"
   xmlns:svg="http://www.w3.org/2000/svg"><defs
     id="defs1" /><g
     id="layer1"
     transform="translate(213.30158,182.21633)"
     style="fill:#000000;fill-opacity:1"><path
       style="fill:#ffffff;fill-opacity:1;stroke:#ffffff;stroke-width:0.188685;stroke-opacity:1"
       d="m 76.973431,75.545641 c -1.10205,-0.0713 -1.3751,-0.20165 -1.51497,-0.72329 -0.0938,-0.34999 -0.186193,-6.10446 -0.205215,-12.787705 -0.01902,-6.683249 -0.118445,-13.31405 -0.220939,-14.735112 l -0.186354,-2.583747 -0.934008,0.936149 c -0.513705,0.514881 -1.421856,1.547376 -2.018113,2.294429 -0.596258,0.747057 -1.835917,2.221961 -2.754798,3.27757 -0.918882,1.055613 -1.670694,2.011195 -1.670694,2.123526 0,0.112327 -0.662766,0.941156 -1.472813,1.841844 -0.810046,0.900687 -1.576654,1.90075 -1.703571,2.222361 -0.126918,0.321612 -0.810466,1.298061 -1.518998,2.169889 -0.708531,0.871823 -2.266254,3.082358 -3.461609,4.912298 -1.195354,1.829938 -2.386379,3.741058 -2.646721,4.246938 -0.260342,0.50588 -0.767712,1.01963 -1.127489,1.14166 -0.359776,0.12204 -0.849353,0.1832 -1.087948,0.13591 -0.238594,-0.0473 -1.475429,-0.77452 -2.748522,-1.61609 -1.273092,-0.84157 -2.588248,-1.8374 -2.922567,-2.21296 -0.33432,-0.37557 -0.685078,-0.90238 -0.779459,-1.17069 -0.09571,-0.27208 0.07477,-0.801048 0.385451,-1.196021 0.306378,-0.389497 1.09399,-0.923019 1.750248,-1.185599 0.656258,-0.262584 2.119428,-1.082052 3.251489,-1.821042 1.132061,-0.738987 2.901004,-2.199227 3.930985,-3.244964 1.029981,-1.045743 3.032656,-3.203279 4.450391,-4.79453 1.417734,-1.591252 3.378116,-3.751395 4.356404,-4.800328 0.978288,-1.048928 2.559865,-2.794822 3.514615,-3.879764 0.95475,-1.084942 1.947814,-2.309819 2.206809,-2.721947 0.258994,-0.412125 0.953616,-1.204997 1.543604,-1.761937 0.589988,-0.556936 1.256887,-1.364177 1.481999,-1.793869 0.251445,-0.479962 0.408875,-1.651526 0.408211,-3.037839 -8.26e-4,-1.688431 -0.135831,-2.475119 -0.536275,-3.12454 -0.294355,-0.477376 -1.172673,-1.532824 -1.951815,-2.345437 -0.779143,-0.812614 -2.327976,-2.449132 -3.441851,-3.6367 -1.113875,-1.187572 -2.862116,-3.097692 -3.884979,-4.244718 -1.022864,-1.14702 -2.085803,-2.457203 -2.362087,-2.911517 -0.276284,-0.454314 -0.741327,-1.003961 -1.03343,-1.221439 -0.292101,-0.217477 -1.030862,-0.981286 -1.64169,-1.697346 -0.610827,-0.716062 -1.717469,-2.001369 -2.459204,-2.856238 -0.741735,-0.854866 -1.944897,-2.221895 -2.673693,-3.0378393 -0.728797,-0.815945 -1.542504,-1.80544 -1.808239,-2.198876 -0.265735,-0.393438 -0.483154,-1.024718 -0.483154,-1.402844 0,-0.396039 0.380937,-1.04335 0.898552,-1.526875 l 0.898551,-0.839372 h -3.444551 c -2.293339,0 -3.560584,-0.116032 -3.791731,-0.347182 -0.242443,-0.242443 -0.345847,-1.791713 -0.342753,-5.1353969 0.0026,-2.633519 0.100079,-4.931858 0.216987,-5.10742 0.138175,-0.207498 2.490616,-0.383022 6.722218,-0.501568 3.580312,-0.100301 9.862133,-0.269707 13.959601,-0.376458 l 7.449945,-0.194092 0.002,-3.4994518 c 8.7e-4,-1.924698 0.1372,-3.987676 0.30291,-4.584395 l 0.30131,-1.084943 h 4.87386 c 3.788982,0 4.906696,0.08566 5.021516,0.384867 0.0812,0.211676 0.16537,2.256493 0.187,4.544039 0.0216,2.2875448 0.0826,4.2024148 0.13541,4.2552678 0.0529,0.05285 6.227597,0.08871 13.721633,0.07969 12.5452,-0.0151 13.67221,0.02353 14.21376,0.487232 0.54505,0.46668 0.5882,0.837033 0.5882,5.047759 0,3.7452649 -0.0799,4.6240519 -0.45464,4.9987679 -0.30963,0.309633 -0.99418,0.454644 -2.14622,0.454644 -0.93037,0 -1.89752,0.07903 -2.14923,0.175613 -0.27912,0.107109 -0.45763,0.520404 -0.45763,1.059513 0,0.486147 0.21789,1.575124 0.4842,2.419953 0.37537,1.190823 0.4124,1.693617 0.16477,2.23712 -0.19313,0.42385 -0.9852,1.0156403 -2.00312,1.4966023 -0.92604,0.437541 -2.07427,1.0763 -2.55165,1.419462 -0.47737,0.343163 -1.19344,0.787667 -1.59125,0.987786 -0.39781,0.20012 -1.89503,1.504962 -3.32716,2.899645 -1.432114,1.394688 -3.500895,3.567827 -4.597276,4.829196 -1.09639,1.261373 -3.67583,4.080213 -5.732097,6.264092 -2.36717,2.514088 -3.83816,4.317654 -4.00991,4.916501 -0.14919,0.520192 -0.26936,1.662727 -0.26704,2.538966 0.002,0.876236 0.19384,2.137413 0.42561,2.802607 0.29986,0.860636 1.32079,2.115442 3.53993,4.350851 1.715197,1.727774 4.576987,4.633641 6.359534,6.457483 1.782541,1.823846 5.234469,5.276582 7.670949,7.672754 2.43648,2.396171 5.30695,5.362227 6.37883,6.591232 1.25924,1.443841 1.94886,2.483635 1.94886,2.938435 0,0.43477 -0.24888,0.83586 -0.65097,1.0491 -0.35803,0.18988 -1.367,0.98144 -2.24216,1.75903 -1.24104,1.10269 -1.77338,1.39504 -2.41912,1.32853 -0.61535,-0.0634 -0.95811,-0.34528 -1.33487,-1.09788 -0.27881,-0.55694 -1.25006,-2.54292 -2.15833,-4.413306 -1.37833,-2.838355 -1.909,-3.623078 -3.20925,-4.745638 -0.856817,-0.739725 -1.596114,-1.511131 -1.642874,-1.714235 -0.0468,-0.203109 -1.482611,-1.810624 -3.190762,-3.572261 -1.70816,-1.761637 -3.20538,-3.208994 -3.32716,-3.216352 -0.12178,-0.0073 -0.4818,-0.345908 -0.80005,-0.752325 -0.31825,-0.406418 -1.652727,-1.818309 -2.965507,-3.137527 -1.31278,-1.319219 -2.40387,-2.250057 -2.42464,-2.068528 -0.0208,0.18153 -0.006,6.711787 0.032,14.511685 0.06,12.205247 0.008,14.329787 -0.37441,15.244677 l -0.444167,1.06305 -3.565929,0.0892 c -1.96127,0.049 -4.17091,0.05 -4.9103,0.002 z M 75.301629,24.488384 c -0.01194,-0.115365 -0.0217,-4.834203 -0.0217,-10.486305 V 3.7255317 l -6.143283,0.07808 -6.143283,0.07808 -0.184979,1.139125 c -0.101739,0.626519 -0.01299,1.961173 0.197231,2.965901 0.210217,1.004726 0.699682,2.4588453 1.087701,3.2313733 0.388018,0.772528 1.419547,2.367217 2.292286,3.543757 0.872739,1.176539 1.863964,2.387177 2.202722,2.690308 0.338758,0.303131 0.615924,0.718876 0.615924,0.923875 0,0.205004 0.243538,0.543315 0.541196,0.751804 0.297658,0.208485 1.550295,1.588479 2.783638,3.066647 1.233343,1.478173 2.366597,2.646199 2.518343,2.595617 0.151746,-0.05058 0.266137,-0.186358 0.254203,-0.301723 z m 13.484608,-2.559386 c 1.24383,-1.292293 2.399117,-2.496581 2.567307,-2.676189 0.1682,-0.179612 1.45113,-1.628499 2.85097,-3.219746 1.39983,-1.591252 2.699764,-3.023378 2.888734,-3.182502 0.18898,-0.159124 0.636087,-0.768439 0.993594,-1.35403 0.357497,-0.585592 1.093164,-1.453815 1.634811,-1.9293883 0.541637,-0.475572 1.547047,-1.628424 2.234227,-2.561891 0.68718,-0.933469 1.54095,-2.010143 1.89727,-2.392609 0.35633,-0.382468 0.64786,-0.810176 0.64786,-0.950468 0,-0.145946 -3.86807,-0.171489 -9.041166,-0.0597 -4.972657,0.107455 -9.062227,0.214239 -9.087947,0.237299 -0.0257,0.02306 -0.0703,0.627794 -0.0992,1.343856 -0.0288,0.716062 -0.0403,5.3053733 -0.0256,10.1984653 0.0148,4.893095 0.0833,8.896534 0.1522,8.896534 0.0689,0 1.14305,-1.057334 2.38687,-2.349631 z"
       id="path1" /><path
       style="fill:#ffffff;fill-opacity:1;stroke:#ffffff;stroke-width:0.889;stroke-dasharray:none;stroke-opacity:1"
       d="m -112.35751,32.180215 c -4.54977,-12.302916 -5.68776,-17.843414 -2.03677,-9.916296 1.18877,2.581061 2.48872,5.676637 2.88881,6.879069 0.49399,1.484658 1.47582,1.990514 3.05959,1.576343 2.11269,-0.552477 2.33217,-0.0195 2.33217,5.663711 0,3.450472 -0.43395,6.541791 -0.96434,6.86958 -0.53039,0.327802 -2.90614,-4.654783 -5.27946,-11.072407 z m -3.17804,-16.911112 c -4.44218,-8.0186527 -7.00121,-11.4012388 -9.21618,-12.1821382 -2.51657,-0.887225 -2.71687,-1.2261112 -1.11704,-1.8899815 1.71826,-0.71300045 1.75856,-1.18122595 0.33983,-3.9495229 -0.88524,-1.7273416 -1.87305,-4.467166 -2.19513,-6.0885011 -0.32207,-1.6213333 -3.21499,-7.1647553 -6.42873,-12.3187093 -13.42571,-21.531335 -18.88937,-30.762178 -18.88937,-31.913505 0,-0.67148 -0.82529,-1.905787 -1.83395,-2.742917 -1.66313,-1.380272 -1.66313,-1.617638 0,-2.548369 2.67427,-1.496599 2.24194,-3.253388 -0.80579,-3.274129 -3.47362,-0.02367 -5.07941,-1.174304 -6.0702,-4.34978 -0.44752,-1.434362 -3.81834,-5.129978 -7.49069,-8.212471 -3.67235,-3.082502 -6.94097,-5.869853 -7.2636,-6.194123 -0.32265,-0.324257 -3.4903,-2.726408 -7.03927,-5.338091 -6.67011,-4.908537 -12.83248,-7.564279 -17.55213,-7.564279 -1.49622,0 -3.34834,-0.858759 -4.11583,-1.90835 -1.12094,-1.532964 -1.88237,-1.647731 -3.87107,-0.583437 -1.62654,0.870506 -2.725,0.921438 -3.20269,0.148537 -0.39987,-0.646994 0.22802,-1.250541 1.39532,-1.341201 2.84359,-0.22088 15.90632,-0.705607 23.52859,-0.873114 5.84383,-0.12842 6.55794,-0.505377 14.14701,-7.467801 8.38173,-7.68964 13.30594,-10.68196 35.42604,-21.52747 29.85826,-14.63955 39.50531,-18.95847 43.815456,-19.61582 2.662654,-0.40609 7.085054,-2.63028 10.786509,-5.42489 3.798967,-2.86825 6.993661,-4.46028 8.099103,-4.03609 1.00404,0.38529 1.825532,0.11608 1.825532,-0.5982 0,-0.71431 -0.527942,-1.29874 -1.17321,-1.29874 -0.64527,0 -1.17321,-0.56352 -1.17321,-1.25228 0,-0.70245 0.992373,-0.9373 2.2603,-0.53487 1.243167,0.39456 4.278849,-0.14376 6.745962,-1.19626 8.211484,-3.50318 9.765195,-4.00437 9.755443,-3.14692 -0.0094,0.82542 -4.015794,3.24145 -15.512539,9.35472 -3.052453,1.6231 -7.944753,5.21324 -10.871767,7.97807 -4.584767,4.33072 -6.027039,5.02696 -10.413342,5.02696 -4.839197,0 -7.159797,0.98236 -26.546057,11.23742 -1.61317,0.85335 -7.15234,3.60152 -12.30925,6.10704 -11.97334,5.81732 -15.26122,8.27643 -15.26122,11.41433 0,2.0078 -0.80511,2.60401 -3.91947,2.90244 -3.46031,0.33158 -3.83866,0.69756 -3.22967,3.12398 0.63155,2.51632 0.41766,2.67483 -2.5332,1.87721 -2.81832,-0.76178 -3.84848,-0.19653 -8.20461,4.50189 -2.73991,2.955178 -5.28322,6.296936 -5.65182,7.426155 -0.3686,1.129228 -1.16257,2.053118 -1.76433,2.053118 -0.60179,0 -1.09417,0.686729 -1.09417,1.526041 0,1.817385 10.22126,7.033604 11.8319,6.03817 0.61595,-0.380682 3.44821,1.526865 6.29388,4.238966 3.62467,3.454524 7.33446,9.264414 12.389,19.40232 3.96825,7.959169 6.8778,15.016829 6.46566,15.683696 -0.41215,0.666854 -0.0582,1.222448 0.78641,1.234638 0.84464,0.01225 3.11958,2.703099 5.05537,5.979798 1.93581,3.276699 4.63538,7.358298 5.99905,9.070224 4.90764,6.160981 7.80643,13.223363 6.55496,15.970038 -0.63765,1.399489 -0.7356,3.3026463 -0.21765,4.2292367 0.51794,0.9265794 2.52574,6.4362009 4.46179,12.243595 4.60889,13.8250233 7.02172,19.3579923 8.44164,19.3579923 0.63662,0 1.15747,0.527953 1.15747,1.173209 0,0.645269 -1.00019,1.17321 -2.22264,1.17321 -1.59147,0 -3.96896,-3.152305 -8.3724,-11.101044 z M -53.319234,4.6657357 c 0,-2.2584352 0.490407,-4.10624325 1.089803,-4.10624325 0.599396,0 0.995358,1.84544225 0.87991,4.10098615 -0.273556,5.3446524 -1.969713,5.3491834 -1.969713,0.00482 z M 129.0834,7.5473775 c -0.41625,-0.6735395 -0.13242,-1.9769802 0.63074,-2.8965436 0.76318,-0.9195632 1.54992,-3.4185751 1.74832,-5.55336722 0.22812,-2.45437468 3.52934,-8.63800778 8.97902,-16.81884068 10.6436,-15.977744 25.59461,-30.470806 49.52244,-48.005567 7.94774,-5.824234 9.86274,-8.505973 6.93147,-9.706715 -1.94128,-0.795208 -3.22251,-6.131636 -1.47216,-6.131636 0.43698,0 0.83956,-1.583838 0.8946,-3.519638 0.055,-1.935793 -0.37315,-3.519627 -0.95154,-3.519627 -0.57838,0 -0.99494,-3.325195 -0.92568,-7.389314 0.1294,-7.593369 -1.52754,-14.437679 -4.74359,-19.594509 l -1.82919,-2.93302 2.51976,2.16804 c 1.38586,1.19244 3.08096,1.82121 3.76689,1.39728 1.56459,-0.96697 1.64259,-4.15194 0.10168,-4.15194 -0.63,0 -4.66658,-2.36148 -8.97018,-5.24775 -4.30358,-2.88627 -10.25546,-6.16054 -13.22636,-7.27615 -2.97092,-1.11562 -6.98551,-2.97571 -8.9213,-4.13354 -1.9358,-1.15784 -4.47876,-2.10714 -5.65103,-2.10955 -1.17227,-0.002 -3.81201,-1.2652 -5.86607,-2.80617 -2.05406,-1.54099 -6.4767,-4.17459 -9.82808,-5.85241 -3.35138,-1.67785 -6.51905,-3.71669 -7.03927,-4.53078 -0.52021,-0.8141 -3.469,-3.50794 -6.55285,-5.98634 -3.11382,-2.50245 -6.87357,-7.00555 -8.45536,-10.12707 -1.56658,-3.09149 -4.9828,-7.31144 -7.59161,-9.37764 -6.66057,-5.27526 -5.9153,-6.54299 1.1219,-1.90845 3.22585,2.12448 8.47731,7.31322 11.6699,11.53053 6.59458,8.71125 12.80756,13.21053 16.5861,12.01126 2.07493,-0.65856 2.36038,-0.4102 1.74759,1.52053 -0.52835,1.66472 0.10241,2.85462 2.26374,4.27082 1.64789,1.07975 3.54474,1.62413 4.21521,1.20975 0.67047,-0.41437 1.49351,0.29619 1.82898,1.579 0.33546,1.28283 2.54369,3.13266 4.90718,4.11072 12.68437,5.24906 16.63111,6.69829 18.24168,6.69829 0.97753,0 2.22657,0.80276 2.77566,1.78393 1.59119,2.84328 12.55219,6.60069 14.27651,4.89396 1.09507,-1.0839 1.66098,-0.95884 2.51609,0.55607 2.12522,3.765 12.26349,12.68298 14.43409,12.69673 1.20534,0.007 3.99543,1.59774 6.20018,3.53353 2.20476,1.93581 5.02759,3.51964 6.27297,3.51964 1.24537,0 2.82941,1.0559 3.52009,2.34642 0.8514,1.59087 0.86468,2.34643 0.0413,2.34643 -0.66797,0 -1.21447,0.79191 -1.21447,1.75982 0,2.36258 -4.57266,2.26494 -5.48677,-0.11715 -0.39614,-1.03233 -1.88908,-3.0458 -3.31765,-4.47436 -2.92403,-2.92403 -15.65131,-9.47323 -16.58846,-8.53607 -0.33479,0.33479 -0.0463,4.48135 0.64126,9.21456 1.78869,12.31482 1.9232,23.10442 0.30814,24.71946 -2.06687,2.066893 -1.63948,4.417556 0.80322,4.417556 3.06566,0 11.24819,-6.140722 19.82731,-14.879773 4.03292,-4.108074 7.33256,-7.149136 7.33256,-6.757929 0,0.391217 1.81653,-0.411367 4.03674,-1.783544 l 4.03675,-2.49482 1.2858,2.40253 c 0.96519,1.803474 0.90939,2.850128 -0.2238,4.197649 -1.3953,1.659198 -11.54337,9.823959 -26.05072,20.959417 -3.27931,2.5171 -9.12387,7.489206 -12.98791,11.049106 -3.86404,3.559914 -11.78322,10.011268 -17.59817,14.336357 -5.81495,4.325078 -12.15649,9.570622 -14.09228,11.656746 -1.93581,2.086136 -6.21259,5.529139 -9.50396,7.651122 -4.29989,2.772162 -7.68076,6.453066 -12.01121,13.077075 -3.34786,5.120997 -5.76529,10.0433617 -5.43841,11.0736141 0.42292,1.3329115 -0.15868,1.828004 -2.06732,1.7598196 -2.06454,-0.073733 -2.66609,0.5581036 -2.70199,2.8381475 -0.0694,4.4079375 -1.76505,10.5589049 -2.91083,10.5589049 -0.55592,0 -1.35134,-0.5510747 -1.7676,-1.2246006 z m 239.71272,-7.57448315 c -0.45506,-1.93580605 -1.30668,-5.89539055 -1.89248,-8.79909205 -1.31608,-6.5236133 -3.36569,-11.7283043 -5.58375,-14.1792423 -1.47836,-1.633562 -1.3955,-2.201668 0.66827,-4.581199 2.44463,-2.818701 3.02152,-4.703782 1.43945,-4.703782 -0.50403,0 -1.05782,-5.411432 -1.2306,-12.025414 -0.1728,-6.613982 -0.77881,-13.87322 -1.34672,-16.131654 -0.56789,-2.258435 -1.39771,-8.857741 -1.84404,-14.665146 -0.44633,-5.807389 -1.00869,-10.899492 -1.24969,-11.315781 -0.241,-0.416286 -2.55301,-0.220086 -5.13782,0.436011 -5.36086,1.360733 -5.09949,-0.05746 -4.71677,25.593774 0.10145,6.802168 -0.18187,13.827467 -0.6297,15.611776 -0.79597,3.171396 -0.86103,3.193981 -2.8991,1.006372 -2.47098,-2.65228 -3.97515,-18.58596 -1.83855,-19.475705 0.91899,-0.382702 0.92021,-0.804699 0.005,-1.501524 -1.80881,-1.376169 -1.34604,-11.424494 0.63612,-13.812871 1.22625,-1.477522 1.30355,-2.220709 0.29583,-2.843511 -0.84701,-0.523492 -1.62122,-6.16118 -2.04194,-14.869024 -0.37268,-7.714182 -0.97244,-15.025922 -1.33279,-16.248312 -0.9542,-3.23686 -7.14805,-8.923 -9.71973,-8.923 -1.21551,0 -2.96792,-0.29084 -3.89425,-0.6463 -1.36758,-0.5248 -1.85475,1.73613 -2.59119,12.02541 -0.49884,6.96945 -1.0451,16.895235 -1.21394,22.05736 -0.16883,5.162139 -0.58495,10.177623 -0.92473,11.145516 -1.5615,4.448162 -1.8681,12.752318 -0.4895,13.257936 0.96093,0.352432 0.57971,1.346031 -1.15843,3.019364 -3.04844,2.93478 -4.04793,3.170516 -3.11306,0.734265 0.37461,-0.976197 0.0331,-1.75982 -0.76708,-1.75982 -1.04622,0 -1.09671,-0.416503 -0.1838,-1.516498 1.30439,-1.571681 0.75435,-10.237178 -0.72016,-11.345666 -1.59286,-1.197472 -1.81143,-24.56032 -0.24738,-26.444857 1.05202,-1.26761 1.10518,-2.17898 0.19138,-3.28006 -0.69597,-0.83858 -1.57889,-3.87428 -1.96201,-6.74596 -0.38314,-2.87168 -1.25973,-7.13135 -1.94795,-9.46592 -1.17862,-3.99797 -1.5332,-4.24313 -6.10082,-4.21814 -7.56176,0.0414 -9.99864,-0.63297 -12.70783,-3.51676 -3.45101,-3.67344 -2.00171,-4.50668 5.01968,-2.88594 3.27289,0.75547 7.42307,1.37359 9.22263,1.37359 1.79955,0 4.64753,1.08205 6.32886,2.40459 2.90877,2.28805 3.31648,2.31648 8.41168,0.58661 2.94513,-0.9999 7.20516,-1.818 9.46674,-1.818 4.47092,0 12.43527,-3.53245 16.63053,-7.37617 2.54852,-2.33497 2.6391,-2.34051 2.62175,-0.16091 -0.0249,3.13163 -1.16937,4.57011 -5.33179,6.7016 -3.48615,1.78519 -7.13309,9.23053 -5.6761,11.58797 1.46644,2.37275 3.88781,0.59474 5.34178,-3.92248 2.89531,-8.99527 3.94497,-6.39886 3.52327,8.71501 -0.22054,7.90454 -0.88048,14.873401 -1.46651,15.486398 -0.58604,0.613007 -1.06553,2.132008 -1.06553,3.375581 0,2.009773 0.65958,2.197672 5.93513,1.690763 7.2763,-0.699166 9.08038,-2.158637 7.24849,-5.863871 -0.72422,-1.464881 -1.54908,-8.124561 -1.83298,-14.799271 l -0.51621,-12.13584 2.7415,0.52406 c 3.79101,0.7247 7.87339,-3.99085 10.41936,-12.03531 3.28241,-10.37149 4.31412,-10.89195 3.48842,-1.75982 -0.40839,4.51685 -1.96135,11.11618 -3.45101,14.66515 -3.62022,8.62484 -5.56699,22.08597 -4.7508,32.849863 0.36695,4.839512 1.13874,20.413878 1.71507,34.609739 0.57632,14.195861 1.65918,30.683005 2.40634,36.638101 1.47824,11.782014 1.34673,26.169962 -0.17985,19.67604135 z M -47.693129,-4.7199579 c -0.56625,-3.3095111 -0.655271,-3.3620441 -1.491177,-0.8799106 -0.488931,1.4518565 -1.619302,2.6397314 -2.511951,2.6397314 -2.041953,0 -2.132246,0.4365545 1.314955,-6.3581913 1.610465,-3.1743666 2.928119,-6.4266236 2.928119,-7.2272306 0,-2.509453 6.523011,-15.379192 9.721607,-19.180514 4.271153,-5.07597 14.358905,-26.550753 15.943895,-33.941342 1.914172,-8.925444 1.774201,-9.944327 -1.2572,-9.151594 -1.958046,0.512041 -3.645771,-0.451492 -7.039261,-4.018806 -4.948938,-5.202425 -5.527997,-6.939952 -2.312822,-6.939952 1.182987,0 2.467529,-0.316649 2.854548,-0.703668 1.12817,-1.128169 -1.70736,-6.3356 -3.449854,-6.3356 -0.873083,0 -2.622973,-0.646697 -3.888641,-1.437104 -1.815886,-1.134051 -2.604314,-1.134051 -3.73836,0 -2.220613,2.220578 -3.537053,1.699121 -2.16808,-0.858794 0.680733,-1.271977 3.034813,-2.634747 5.278297,-3.055637 2.335157,-0.43807 6.756369,-3.06704 10.443289,-6.20985 8.883513,-7.57247 15.738369,-13.07601 16.286648,-13.07601 0.254278,0 0.22671,1.60528 -0.06125,3.56729 -0.390456,2.66033 -1.60647,4.12646 -4.782958,5.76664 -2.342662,1.20965 -6.35843,4.36827 -8.923937,7.01916 -4.08312,4.21903 -4.485279,5.106863 -3.226331,7.122741 0.791021,1.266611 1.438216,3.453968 1.438216,4.86081 0,1.406835 0.350839,2.207033 0.779638,1.778233 1.192989,-1.192983 10.713421,8.999906 11.561221,12.377816 1.286136,5.124349 -3.652337,18.404642 -12.120108,32.592785 -4.428739,7.420571 -9.263729,14.103391 -10.744415,14.85074 -3.166329,1.598107 -6.532037,10.12317 -8.727294,22.1054189 -1.224779,6.6852194 -1.61658,7.5579345 -2.106794,4.6928382 z M 304.67457,-9.7060951 c 0.17149,-1.1292169 -0.14847,-3.6369549 -0.71102,-5.5727609 -0.56253,-1.935794 -1.09118,-5.103468 -1.17472,-7.039262 -0.0836,-1.935805 -1.10978,-4.969608 -2.28047,-6.741811 -1.40423,-2.125704 -2.28538,-6.117984 -2.58943,-11.732112 -0.6853,-12.653616 -1.36937,-18.482774 -2.85733,-24.348288 -1.18555,-4.673444 -1.50095,-8.366728 -1.12712,-13.198632 0.16835,-2.175966 -1.80172,-10.808851 -2.85586,-12.51449 -1.22334,-1.979405 -8.95407,-0.590659 -10.91248,1.960316 -1.77319,2.309727 -1.94312,13.630824 -0.25203,16.790659 0.79493,1.48535 0.8092,2.269294 0.0413,2.269294 -0.64527,0 -1.73831,-1.055884 -2.42899,-2.346421 -0.69066,-1.290525 -1.89711,-2.354508 -2.681,-2.364391 -0.78388,-0.0094 -2.21715,-0.522935 -3.18505,-1.140136 -1.49098,-0.950733 -1.348,-1.412212 0.93583,-3.020751 2.17928,-1.534909 2.42478,-2.224978 1.2816,-3.602432 -1.07106,-1.290564 -1.08464,-2.033277 -0.0559,-3.061982 0.74697,-0.746962 1.35812,-2.662818 1.35812,-4.257449 0,-1.594606 0.75164,-3.732795 1.67031,-4.751492 0.91868,-1.018718 2.73328,-5.916404 4.03246,-10.883794 1.29919,-4.96742 2.92329,-10.08017 3.60915,-11.3617 0.68584,-1.28151 1.25508,-3.81658 1.26496,-5.63349 0.01,-1.81688 0.4788,-4.03102 1.04205,-4.92027 1.49958,-2.36758 3.86719,-0.38323 2.95855,2.47963 -0.60397,1.90293 -0.36359,2.26932 1.11625,1.70145 3.71399,-1.4252 6.60123,7.17469 8.88098,26.452772 0.59007,4.989864 1.49392,9.741375 2.00852,10.558898 0.51461,0.817535 1.06623,6.76588 1.22585,13.218538 0.95636,38.663367 1.19921,42.327549 3.1004,46.778421 2.06749,4.840234 2.38974,8.755815 1.20719,14.668523 -0.75654,3.7826697 -3.17776,5.2722628 -2.62208,1.6131629 z m -11.0667,-86.3763859 c 0.41736,-0.417337 -0.0676,-1.413261 -1.07752,-2.213178 -1.00999,-0.799894 -2.47595,-4.226081 -3.25771,-7.613711 -0.78174,-3.38766 -1.60535,-6.15938 -1.83024,-6.15938 -0.22488,0 -1.30172,3.182 -2.39295,7.0711 -1.09122,3.88911 -2.43839,7.351888 -2.99372,7.695088 -0.55531,0.343207 -1.00967,1.023414 -1.00967,1.511581 0,1.062546 11.47402,0.796287 12.56181,-0.2915 z m -389.495935,71.569916 c -4.648055,-5.224886 -10.665985,-18.336749 -8.416025,-18.336749 2.59655,0 2.04345,-3.012025 -0.9136,-4.975459 -2.2598,-1.50044 -2.4038,-2.006867 -1.03848,-3.651979 1.03733,-1.24991 1.3176,-3.23141 0.811,-5.733655 -1.56819,-7.745767 -2.99533,-16.919285 -3.74148,-24.049907 l -0.76608,-7.320913 -4.82645,0.724943 c -2.65457,0.398711 -5.30378,1.16114 -5.88714,1.694262 -0.88582,0.809541 -1.39092,31.205637 -0.575,34.602411 0.14327,0.596434 -1.07619,3.862262 -2.7099,7.257406 -3.3285,6.917224 -3.92705,6.71812 -7.30878,-2.431326 -2.22161,-6.010672 -1.70752,-9.074578 0.65323,-3.893269 0.77613,1.703411 2.37181,3.084634 3.56356,3.084634 3.43329,0 2.46785,-3.851464 -1.61745,-6.452661 -4.68067,-2.98026 -5.11681,-4.413945 -1.80159,-5.9222 1.45426,-0.661621 2.50188,-1.874316 2.32803,-2.694881 -0.17385,-0.820563 -0.94852,-3.856542 -1.72151,-6.746615 -1.11697,-4.176257 -1.09761,-5.747546 0.0943,-7.656161 0.88826,-1.422314 1.19339,-3.796339 0.74838,-5.822466 -0.46792,-2.130445 -0.27363,-3.42099 0.51505,-3.42099 0.69654,0 1.26642,-0.791908 1.26642,-1.75982 0,-0.9679 -0.55908,-1.759807 -1.24244,-1.759807 -0.68334,0 -0.90187,-0.551084 -0.4856,-1.224615 0.41626,-0.673528 0.18535,-1.913192 -0.51312,-2.754827 -1.36821,-1.648585 -2.78979,-23.429471 -1.7503,-26.817321 0.94502,-3.07992 2.81826,-2.47058 2.81826,0.91674 0,1.63341 0.79192,3.27373 1.75983,3.64515 1.1535,0.44264 1.75981,2.27276 1.75981,5.31188 0,2.5501 0.46786,4.3474 1.03969,3.99399 1.24236,-0.76781 2.92796,11.322446 1.99049,14.277146 -0.57559,1.814127 0.19894,2.06597 6.36975,2.071215 4.59106,0.0039 7.02503,-0.470342 7.02503,-1.368742 0,-0.756104 -0.50537,-1.550711 -1.12304,-1.765787 -0.61765,-0.215083 -1.30786,-5.220788 -1.53378,-11.123792 -0.40926,-10.69395 -0.39886,-10.7398 2.87908,-12.67613 1.80941,-1.06884 4.93748,-3.99364 6.95127,-6.49955 6.098862,-7.58923 7.005506,-6.24106 2.019416,3.00285 -4.254226,7.88708 -4.683316,9.45035 -4.408676,16.06172 0.16734,4.02833 -0.11191,10.903628 -0.62064,15.278502 -1.16308,10.002948 0.93079,28.361789 4.29422,37.651207 1.77502,4.9024 2.157667,7.423556 1.32664,8.740983 -1.175591,1.863709 0.956687,9.044715 5.017311,16.897128 2.601127,5.030015 1.501881,5.842182 -2.229726,1.647455 z m 171.328781,-0.06671 c -2.120104,-1.566616 -2.84476,-5.364679 -1.023557,-5.364679 1.681956,0 3.887251,3.272369 3.46686,5.144356 -0.324806,1.446291 -0.73423,1.483207 -2.443303,0.220323 z M -86.03445,-27.715408 c -1.029706,-2.953821 -0.967885,-3.522318 0.328885,-3.024704 0.878304,0.33703 2.083602,0.126104 2.678443,-0.468738 0.659898,-0.659896 1.081526,0.519272 1.081526,3.024705 0,5.133081 -2.368209,5.404569 -4.088854,0.468737 z m 431.72013,-3.108457 c -0.85077,-3.065011 -1.77874,-6.364676 -2.06214,-7.332573 -0.34769,-1.18741 0.38408,-1.810249 2.24976,-1.914872 2.44575,-0.137167 2.89658,0.562954 3.90411,6.062847 1.25417,6.846305 1.00842,8.757349 -1.12614,8.757349 -0.7803,0 -2.1148,-2.507741 -2.96559,-5.572751 z m -404.284365,-0.768939 c -1.935806,-2.126538 -4.155064,-4.077341 -4.931706,-4.335127 -0.77664,-0.257775 -1.636785,-2.316497 -1.911437,-4.574931 -0.274638,-2.258434 -1.092762,-5.596953 -1.818049,-7.418929 -0.725287,-1.821988 -1.640936,-6.045544 -2.034794,-9.385694 -1.232105,-10.449069 -10.742747,-35.9899 -13.401568,-35.9899 -3.285048,0 -3.206136,13.308336 0.168289,28.378729 1.344378,6.004118 0.603214,30.651714 -0.93519,31.099946 -0.520413,0.151628 -1.97371,-0.500349 -3.229566,-1.448813 -1.771976,-1.338276 -1.969047,-2.038825 -0.879911,-3.127961 1.827923,-1.82791 1.795239,-5.915658 -0.06303,-7.885443 -1.17321,-1.243606 -1.17321,-1.662059 0,-2.092225 1.853337,-0.679569 1.94211,-7.381454 0.09776,-7.381454 -0.752807,0 -1.060771,-0.307976 -0.68435,-0.684397 0.376411,-0.37641 -0.0107,-2.336846 -0.859632,-4.356524 -1.345519,-3.200059 -1.295247,-3.866188 0.391062,-5.181665 1.770358,-1.381045 1.775307,-1.634407 0.05804,-2.976596 -1.032347,-0.806886 -2.166833,-3.050655 -2.521085,-4.986152 -1.087626,-5.942497 -1.83708,-8.546387 -3.184552,-11.064133 -0.711694,-1.329834 -1.483771,-5.077282 -1.715718,-8.327662 -0.37562,-5.263301 -0.18968,-5.836098 1.699828,-5.236381 2.809558,0.891704 3.919175,-1.125074 2.291904,-4.165654 -0.970656,-1.81368 -0.958573,-2.86775 0.04674,-4.0791 0.7456,-0.89838 1.052529,-2.12385 0.682066,-2.72328 -0.732125,-1.18458 1.322054,-8.13405 3.065914,-10.37229 1.451952,-1.86355 8.94041,0.75771 12.866777,4.5039 1.5848,1.51207 5.353678,4.75528 8.375302,7.20715 5.828919,4.72982 6.847744,7.27296 3.357466,8.38071 -1.175006,0.37294 -3.801179,2.305688 -5.835937,4.295026 -3.693285,3.610875 -3.696353,3.624295 -1.81346,7.906794 1.037342,2.359365 2.544193,7.457451 3.348558,11.329046 2.56239,12.333568 10.320502,37.426897 12.604579,40.769093 1.212695,1.774485 1.886401,3.22633 1.497123,3.22633 -0.389266,0 -0.142671,1.055895 0.548005,2.346433 2.03961,3.811038 -1.242346,2.786042 -5.27945,-1.648846 z m -13.509561,-67.671229 c 5.707918,-3.512117 7.431037,-5.765417 4.408853,-5.765417 -0.811167,0 -4.371045,-2.37575 -7.910857,-5.27946 -7.457523,-6.11737 -9.38172,-6.53784 -9.395886,-2.05311 -0.006,1.77447 -0.338184,5.95635 -0.739058,9.29305 -0.719899,5.992135 -0.687335,6.072885 2.649924,6.570132 1.858333,0.27692 3.766808,0.582567 4.241064,0.679247 0.474254,0.0967 3.509936,-1.453311 6.74596,-3.444442 z m 139.150243,66.754708 c -0.393192,-1.308616 -1.292333,-5.635822 -4.708254,-22.658686 -0.258976,-1.290537 -1.089316,-4.986152 -1.845215,-8.212483 -1.838246,-7.84604 -1.95122,-8.447827 -2.894497,-15.416878 -0.749382,-5.536643 -1.109391,-6.089829 -4.390146,-6.745984 -5.316238,-1.063247 -6.443944,-0.903377 -8.561026,1.213708 -1.230667,1.230679 -1.677413,2.928759 -1.234651,4.692861 0.381595,1.520399 0.19675,2.76437 -0.41077,2.76437 -1.372612,0 -3.047706,5.066432 -5.379747,16.271341 -1.152136,5.535727 -2.849588,9.893607 -4.719137,12.115433 -3.236309,3.846137 -4.184,1.691019 -1.279951,-2.910708 1.968475,-3.11922 5.779824,-21.565029 4.787582,-23.170499 -0.384902,-0.622802 -1.548586,-1.132357 -2.585939,-1.132357 -1.037366,0 -1.496897,-0.38923 -1.021166,-0.864949 0.475718,-0.475714 1.729576,-0.871677 2.786351,-0.879906 1.056787,-0.0083 2.536903,-1.334827 3.289151,-2.947993 3.657676,-7.843658 4.974675,-11.696056 6.172481,-18.055291 0.715842,-3.800384 2.237835,-8.229974 3.382216,-9.843544 1.14438,-1.61357 2.608642,-3.78359 3.253911,-4.8223 3.234632,-5.20691 5.873329,-4.73063 7.411864,1.33778 2.337893,9.22128 4.00038,20.783537 3.2642,22.701986 -0.587029,1.529771 -0.176295,1.764068 2.093677,1.194349 2.004619,-0.50314 3.041188,-0.142712 3.572639,1.242209 0.411755,1.073033 0.155003,2.317852 -0.570568,2.766299 -0.947334,0.585482 -0.29274,6.813273 2.322087,22.092332 3.293469,19.244453 3.483165,21.655502 1.985804,25.239201 -1.872462,4.481427 -4.031457,6.324321 -4.720896,4.029709 z M 55.496119,-90.517212 c 3.438579,-0.921499 3.342434,-3.144032 -0.293298,-6.77974 -1.613167,-1.613151 -2.933031,-4.012888 -2.933031,-5.332758 0,-4.50518 -2.200729,-2.41253 -2.988681,2.8419 -0.432319,2.882875 -1.603091,5.918547 -2.601721,6.745922 -1.841896,1.526031 -1.762497,1.570196 5.590402,3.109309 0.322639,0.06758 1.774484,-0.195551 3.226329,-0.584633 z m -108.039271,49.449618 c -1.872367,-1.872367 -2.313892,-11.976781 -0.570435,-13.05431 0.553214,-0.341896 0.720659,-1.083047 0.372116,-1.647013 -0.348544,-0.563955 -0.892078,-8.57863 -1.207844,-17.8104 -0.315778,-9.231769 -0.810905,-17.85225 -1.100293,-19.15662 -0.413706,-1.864741 -1.879466,-14.096803 -2.035459,-16.986363 -0.172607,-3.19736 0.582116,-4.69284 2.368387,-4.69284 1.167204,0 3.146992,-0.77513 4.399542,-1.72251 3.109634,-2.35201 4.329026,-2.21848 3.503158,0.38361 -0.997012,3.14128 -1.116086,31.294781 -0.139056,32.87566 0.451979,0.731329 -0.0107,1.649265 -1.02885,2.039851 -1.564723,0.600431 -1.817349,2.963182 -1.635109,15.292583 0.171299,11.590037 0.535804,14.459534 1.776282,13.983518 2.653552,-1.018265 1.813876,4.883156 -0.972487,6.834793 -2.11757,1.483207 -2.286503,2.071637 -1.029552,3.586161 1.950398,2.350096 -0.360948,2.41332 -2.7004,0.07386 z m 156.799842,-1.424062 c 1.03059,-1.667518 -4.0299,-20.032845 -8.665264,-31.447741 -0.786084,-1.935794 -1.484011,-4.31154 -1.550941,-5.279437 -0.1266,-1.830705 -7.878059,-14.020504 -8.939127,-14.057476 -0.332726,-0.01195 -0.14015,5.810253 0.427943,12.937453 1.698737,21.312044 -2.636901,34.241606 -6.430362,19.176384 -0.703558,-2.794047 -2.012446,-5.688639 -2.908662,-6.432432 -2.35402,-1.953669 -2.008033,-3.194492 1.010261,-3.623161 2.292924,-0.325649 2.685853,-1.170926 2.990856,-6.433973 0.23193,-4.002018 -0.193146,-6.56754 -1.252062,-7.556717 -1.355285,-1.266013 -1.351788,-2.227366 0.0226,-6.216564 1.348434,-3.913884 1.36034,-4.926438 0.06982,-5.935212 -0.855816,-0.668937 -1.386802,-2.376908 -1.179989,-3.795458 0.206824,-1.41857 -0.186486,-3.6303 -0.874012,-4.91495 -0.808099,-1.50995 -0.842637,-2.58754 -0.09765,-3.04794 0.746385,-0.46129 0.752368,-1.41633 0.01701,-2.71092 -0.62448,-1.09931 -2.244318,-4.90242 -3.599649,-8.4514 -1.355331,-3.54896 -3.526041,-9.09239 -4.823785,-12.31872 -1.297756,-3.22633 -2.621238,-7.18592 -2.941071,-8.79908 -0.579868,-2.92467 -0.573434,-2.92333 2.260551,0.47145 2.198694,2.63376 3.485616,3.24303 5.684833,2.69133 2.695654,-0.67622 2.855357,-0.41691 3.086205,5.01149 0.22973,5.40247 7.060264,21.05452 17.303803,39.651378 2.054778,3.730423 2.601118,6.158343 2.147228,9.542337 -0.585467,4.364995 -0.49232,4.516586 2.43186,3.957591 2.432894,-0.465073 3.177754,-1.434409 3.726504,-4.849496 0.37721,-2.347525 1.22497,-6.735656 1.88389,-9.751413 0.65892,-3.015719 1.2028,-8.559117 1.20863,-12.318657 0.006,-3.75956 0.78748,-10.35697 1.73701,-14.66092 1.63955,-7.43175 1.60471,-8.07722 -0.69274,-12.83239 -2.86503,-5.92988 -2.83691,-5.7395 -0.84764,-5.7395 1.72212,0 4.67114,-5.4808 3.75054,-6.97038 -0.59684,-0.9657 2.18957,-3.77063 5.23688,-5.2717 0.9679,-0.47677 0.51002,0.15184 -1.01751,1.3969 -2.04492,1.6668 -2.56487,2.9332 -1.97166,4.80221 0.4431,1.39612 -0.0535,11.26117 -1.10369,21.92234 -1.05014,10.66115 -1.78271,20.29276 -1.6279,21.40356 0.1548,1.11081 -0.0904,4.131424 -0.54489,6.712472 -0.45449,2.581048 -1.02926,15.763296 -1.27728,29.293845 -0.33209,18.116437 -0.83207,24.728039 -1.89678,25.082946 -0.7952,0.265066 -1.13433,-0.02213 -0.75363,-0.638049 z M 6.0058072,-51.020075 c -1.6229411,-0.579581 -1.8571311,-1.06441 -0.8229297,-1.703578 1.1372807,-0.702891 1.1206777,-1.309054 -0.0779,-2.842107 -1.3039411,-1.667851 -1.2698781,-1.760035 0.236332,-0.639691 0.9678967,0.719935 2.3489177,1.511859 3.0689357,1.759821 0.720017,0.247951 0.984,1.30243 0.58661,2.34327 -0.491512,1.287361 -1.447849,1.633406 -2.991071,1.082285 z m 18.1195558,-0.613073 c -1.680361,-2.024707 -0.730364,-7.090984 1.805099,-9.626449 1.933047,-1.933057 2.00512,-5.151218 0.599266,-26.758344 -0.94109,-14.463689 -0.862463,-15.463849 1.521646,-19.357929 l 2.51401,-4.10625 0.669352,7.62588 c 0.368144,4.19423 1.068728,8.508476 1.556851,9.587263 0.488123,1.078798 0.27025,3.114814 -0.484187,4.52447 -0.843409,1.575932 -1.337563,7.95102 -1.283092,16.553109 l 0.08861,13.990084 -3.055176,1.161578 c -2.61503,0.99423 -2.954463,1.665033 -2.356196,4.656376 0.787998,3.940022 0.503453,4.256001 -1.576166,1.750212 z M 4.5320668,-60.740765 c -1.2671311,-1.694623 -1.2200341,-4.100176 0.138699,-7.082968 0.6168917,-1.354262 0.3400997,-2.808427 -0.7816124,-4.106242 -0.9552187,-1.105181 -2.3296036,-4.449184 -3.05417625,-7.431116 -0.7245729,-2.981941 -1.6290785,-6.233911 -2.01000765,-7.226587 -0.4407403,-1.148549 0.1381877,-2.068554 1.59201915,-2.529988 2.25392635,-0.715372 3.20751575,-5.625278 1.60912175,-8.285226 -0.3875061,-0.644877 -0.5596014,-2.554515 -0.3824158,-4.243648 0.1771858,-1.68915 -0.4812367,-3.87454 -1.46315585,-4.85647 -0.9819069,-0.98191 -2.03184345,-3.14489 -2.33317115,-4.80662 -0.7400339,-4.08111 -6.9680057,-12.94228 -11.2285506,-15.97607 -1.905906,-1.35712 -5.794513,-3.49783 -8.641354,-4.75712 -2.846841,-1.2593 -5.796523,-3.03723 -6.554849,-3.95095 -1.162934,-1.40125 -0.773954,-1.51689 2.484727,-0.73864 8.673859,2.07149 18.598363,7.95362 24.0372422,14.24658 2.04747135,2.36896 4.0768174,3.21408 8.840078,3.68136 3.4003998,0.33358 7.0500258,0.1494 8.1102868,-0.40929 1.33396,-0.70292 2.897114,-0.25328 5.074912,1.45976 2.660771,2.09297 4.176055,2.37126 9.804372,1.80067 5.138053,-0.52088 6.143449,-0.38376 4.405809,0.6009 -1.238278,0.70167 -4.367275,1.75119 -6.953334,2.33225 -4.322056,0.97108 -4.92904,0.79154 -7.512825,-2.22239 -2.60944,-3.04383 -2.770618,-3.08965 -2.248896,-0.6391 0.516737,2.42711 0.140304,2.63972 -4.674052,2.63972 H 7.5548802 l 0.492334,12.61201 c 0.270785,6.936582 1.165277,16.003966 1.9877548,20.149729 1.16065,5.850359 1.186709,8.391425 0.116435,11.351324 -0.7584568,2.097482 -1.0378768,5.172828 -0.6209228,6.834102 0.6238838,2.485738 0.345594,3.020506 -1.571849,3.020506 -1.281474,0 -2.8234107,-0.659932 -3.4265294,-1.46651 z m 263.6086532,-2.05312 c -1.64913,-1.649143 -3.82815,-2.32097 -7.33256,-2.260777 -5.95204,0.102282 -15.9264,1.586667 -18.71942,2.785899 -1.75551,0.753771 -1.95334,0.162271 -1.61179,-4.819088 0.21413,-3.123085 0.48432,-5.678327 0.60042,-5.678327 0.46279,0 0.16094,-15.740239 -0.45,-23.46422 -0.50834,-6.427192 -1.159,-8.562342 -2.99306,-9.822052 -3.06669,-2.10633 -2.96657,-3.41816 0.29622,-3.88155 1.6452,-0.23365 3.30275,-1.82452 4.39954,-4.22254 l 1.75982,-3.84764 9.75471,0.26923 c 5.36508,0.14809 10.01576,0.69164 10.33483,1.20792 0.31907,0.51627 3.71666,0.93868 7.55018,0.93868 3.86453,0 6.97003,0.52273 6.97003,1.17321 0,0.64526 -0.39597,1.1107 -0.87992,1.03428 -2.99252,-0.47251 -6.1592,0.35305 -6.15822,1.60545 8.7e-4,1.10198 -2.90306,1.36666 -11.68255,1.06483 -11.4368,-0.39322 -11.69717,-0.34363 -12.32101,2.34641 -0.35049,1.51146 -0.44862,4.33195 -0.21802,6.26774 0.36471,3.061857 0.97906,3.595924 4.72336,4.106231 3.10141,0.422677 4.93289,1.549631 6.55434,4.033021 1.23763,1.89555 1.94326,3.943134 1.56808,4.550202 -0.37519,0.607077 -1.16328,0.244037 -1.75132,-0.806716 -0.58803,-1.050762 -1.83483,-1.910495 -2.77067,-1.910495 -0.93584,0 -1.70153,-0.527933 -1.70153,-1.173207 0,-0.645255 -1.86994,-1.17321 -4.15543,-1.17321 h -4.15543 l 0.66818,7.332575 c 0.3675,4.032928 0.96119,8.281818 1.31934,9.442005 0.35814,1.160172 -0.0185,2.916234 -0.83686,3.902353 -1.21203,1.460408 -1.17561,1.990598 0.19638,2.858757 1.50355,0.9514 11.35125,1.733169 16.56597,1.315096 1.08695,-0.08718 3.63905,1.940991 5.67135,4.506961 3.81408,4.815687 2.95975,6.473666 -1.19496,2.318972 z M 44.997492,-117.64148 c -0.973451,-1.12923 -2.627553,-3.82688 -3.675765,-5.9948 l -1.905847,-3.94165 5.143238,4.52826 c 2.828775,2.49055 5.192964,5.1882 5.253739,5.99478 0.161725,2.14617 -2.767121,1.78939 -4.815365,-0.58659 z"
       id="path1-2" /></g></svg>
