<?xml version="1.0" encoding="UTF-8" standalone="no"?>
<!-- Created with Inkscape (http://www.inkscape.org/) -->

<svg
   width="358.77725mm"
   height="491.15961mm"
   viewBox="0 0 358.77725 491.15961"
   version="1.1"
   id="svg1"
   xmlns="http://www.w3.org/2000/svg"
   xmlns:svg="http://www.w3.org/2000/svg">
  <defs
     id="defs1" />
  <g
     id="layer1"
     transform="translate(74.347914,97.102088)">
    <path
       style="fill:#ffffff;fill-opacity:1"
       d="m 83.337664,393.8708 c -5.840647,-0.3778 -7.287766,-1.06871 -8.029071,-3.83333 -0.497358,-1.85486 -0.986772,-32.3525 -1.087586,-67.77253 -0.100814,-35.42003 -0.627736,-70.56209 -1.170938,-78.09346 l -0.987641,-13.69341 -4.950077,4.96143 c -2.722543,2.72878 -7.535581,8.20081 -10.69564,12.16007 -3.160059,3.95926 -9.730032,11.776 -14.59994,17.37054 -4.869908,5.59455 -8.854378,10.65897 -8.854378,11.25429 0,0.59531 -3.51254,4.98796 -7.805644,9.76145 -4.293105,4.77349 -8.355987,10.07365 -9.028628,11.77813 -0.67264,1.70448 -4.295327,6.87948 -8.050415,11.50001 -3.755088,4.62052 -12.010748,16.33596 -18.345913,26.0343 -6.335164,9.69834 -12.647382,19.82695 -14.02715,22.50802 -1.379769,2.68107 -4.068739,5.40385 -5.97549,6.05061 -1.906751,0.64677 -4.501419,0.9709 -5.765929,0.7203 -1.26451,-0.25061 -7.819516,-4.10486 -14.56668,-8.565 -6.747164,-4.46015 -13.717253,-9.73789 -15.489088,-11.72831 -1.771834,-1.99042 -3.630782,-4.78241 -4.130993,-6.20442 -0.50724,-1.44199 0.396244,-4.24543 2.042811,-6.3387 1.623758,-2.06427 5.797965,-4.89184 9.276015,-6.28348 3.47805,-1.39164 11.232591,-5.73467 17.232313,-9.65119 5.999722,-3.91651 15.374806,-11.6555 20.83352,-17.19774 5.458714,-5.54224 16.072539,-16.97681 23.586278,-25.41015 7.51374,-8.43334 17.903416,-19.88173 23.08817,-25.44087 5.184754,-5.55914 13.566829,-14.81208 18.626834,-20.56207 5.060004,-5.75 10.323065,-12.24162 11.69569,-14.42583 1.372626,-2.1842 5.053999,-6.38628 8.180831,-9.33795 3.126831,-2.95167 6.661278,-7.22991 7.854326,-9.5072 1.332618,-2.5437 2.166969,-8.7528 2.163448,-16.10001 -0.0043,-8.94837 -0.719879,-13.11767 -2.842159,-16.5595 -1.560034,-2.53 -6.214959,-8.12368 -10.344277,-12.43039 C 57.040945,144.52769 48.832407,135.85445 42.929069,129.56054 37.02573,123.26662 27.760366,113.14332 22.33937,107.0643 16.918375,100.98529 11.284986,94.04155 9.82073,91.63377 8.356473,89.226 5.891827,86.31296 4.343738,85.16037 2.795649,84.00777 -1.11965,79.95973 -4.356928,76.16473 -7.594205,72.36973 -13.45921,65.55783 -17.390273,61.02718 -21.321335,56.49654 -27.69788,49.25153 -31.560372,44.92717 c -3.862493,-4.32436 -8.174997,-9.56851 -9.583342,-11.65365 -1.408346,-2.08515 -2.560629,-5.43082 -2.560629,-7.43482 0,-2.09894 2.018895,-5.52957 4.762163,-8.09217 l 4.762162,-4.44852 h -18.255508 c -12.154282,0 -18.870461,-0.61495 -20.095511,-1.84 -1.2849,-1.28491 -1.83292,-9.49576 -1.81652,-27.21669 0.0129,-13.957183 0.53041,-26.137969 1.15,-27.068417 0.7323,-1.099705 13.199818,-2.029951 35.626553,-2.658225 18.975017,-0.531575 52.267547,-1.429395 73.9834,-1.995156 l 39.483369,-1.028655 0.0086,-18.546472 c 0.0047,-10.20056 0.727136,-21.133975 1.605407,-24.296478 l 1.596856,-5.750005 H 104.9372 c 20.08108,0 26.00478,0.454011 26.61328,2.039724 0.43049,1.121848 0.87647,11.959017 0.99107,24.082599 0.1146,12.123581 0.43754,22.272054 0.71764,22.552161 0.28011,0.280107 33.00518,0.470173 72.72237,0.422369 66.48731,-0.08003 72.46025,0.12472 75.33042,2.582241 2.88863,2.473323 3.11735,4.436126 3.11735,26.752224 0,19.84924 -0.42359,24.50665 -2.40952,26.49258 -1.641,1.641 -5.26898,2.40953 -11.37461,2.40953 -4.93079,0 -10.05651,0.41882 -11.39048,0.93072 -1.47931,0.56766 -2.42541,2.75805 -2.42541,5.61523 0,2.57649 1.15477,8.34788 2.56616,12.82532 1.98941,6.31115 2.18568,8.97587 0.87325,11.85634 -1.0235,2.24633 -5.22136,5.38271 -10.61617,7.93172 -4.90779,2.31889 -10.99326,5.7042 -13.52326,7.5229 -2.53,1.8187 -6.32501,4.17449 -8.43334,5.23509 -2.10834,1.0606 -10.04334,7.97603 -17.63335,15.36761 -7.59001,7.39159 -18.5542,18.90883 -24.36488,25.59387 -5.81068,6.68504 -19.48127,21.6244 -30.3791,33.19858 -12.54559,13.3242 -20.34159,22.88278 -21.25183,26.05657 -0.79067,2.75693 -1.42755,8.81216 -1.41528,13.45607 0.0123,4.6439 1.02732,11.3279 2.25565,14.85332 1.58924,4.56122 7,11.21146 18.76104,23.05874 9.09023,9.15689 24.25722,24.55747 33.70441,34.22351 9.4472,9.66605 27.74184,27.96495 40.65476,40.66423 12.91292,12.69928 28.12592,28.41884 33.80666,34.93235 6.67376,7.65211 10.32863,13.16279 10.32863,15.57316 0,2.30422 -1.31898,4.42989 -3.45001,5.56004 -1.8975,1.00631 -7.24487,5.20145 -11.88304,9.32254 -6.57731,5.84405 -9.39861,7.39345 -12.82094,7.04098 -3.26121,-0.33588 -5.07778,-1.82994 -7.07456,-5.81859 -1.47765,-2.95167 -6.62509,-13.47703 -11.43876,-23.38969 -7.30489,-15.04277 -10.11737,-19.20168 -17.00847,-25.15103 -4.541,-3.92041 -8.45914,-8.00873 -8.70699,-9.08515 -0.24785,-1.07643 -7.85759,-9.59598 -16.91054,-18.93234 -9.05295,-9.33637 -16.98795,-17.00711 -17.63335,-17.04611 -0.64539,-0.039 -2.55344,-1.83323 -4.24011,-3.98718 -1.68667,-2.15395 -8.75918,-9.6367 -15.71668,-16.62833 -6.95751,-6.99163 -12.74008,-11.9249 -12.85017,-10.96283 -0.11008,0.96207 -0.0338,35.57128 0.16958,76.90935 0.3182,64.6856 0.0417,75.94529 -1.98429,80.79408 l -2.35401,5.63396 -18.89892,0.47265 c -10.394397,0.25996 -22.105059,0.26526 -26.023688,0.0118 z M 74.477431,123.27644 c -0.06325,-0.61142 -0.115,-25.62041 -0.115,-55.57555 V 13.23702 L 41.804125,13.65085 9.24582,14.06468 8.265461,20.10184 c -0.539198,3.32044 -0.06882,10.39387 1.045292,15.71875 1.114109,5.32487 3.708187,13.03144 5.764617,17.1257 2.05643,4.09426 7.52335,12.54583 12.148712,18.78128 4.625362,6.23544 9.878677,12.65161 11.674034,14.25815 1.795357,1.60654 3.264285,3.80992 3.264285,4.89639 0,1.08647 1.29071,2.87946 2.868245,3.98441 1.577534,1.10494 8.216288,8.41866 14.752786,16.2527 6.536498,7.83404 12.542545,14.02437 13.34677,13.75629 0.804226,-0.26807 1.410479,-0.98766 1.347229,-1.59907 z m 71.466159,-13.56428 c 6.59207,-6.84893 12.71491,-13.23144 13.60631,-14.18334 0.8914,-0.95191 7.69072,-8.63075 15.10958,-17.06409 7.41887,-8.43334 14.30829,-16.02335 15.30982,-16.86668 1.00154,-0.84333 3.37119,-4.07259 5.2659,-7.17612 1.89471,-3.10353 5.79362,-7.70496 8.66425,-10.22541 2.87063,-2.52045 8.19909,-8.63036 11.84103,-13.57757 3.64193,-4.94722 8.16678,-10.6534 10.05522,-12.6804 1.88845,-2.02701 3.43353,-4.29379 3.43353,-5.03731 0,-0.77349 -20.50008,-0.90886 -47.91671,-0.3164 -26.35419,0.56949 -48.02823,1.13543 -48.16453,1.25764 -0.13631,0.12221 -0.3728,3.3272 -0.52553,7.1222 -0.15274,3.795 -0.21372,28.11753 -0.13551,54.05005 0.0782,25.93252 0.44119,47.15004 0.80663,47.15004 0.36544,0 6.05794,-5.60367 12.65001,-12.45261 z"
       id="path1" />
  </g>
</svg>
