<?xml version="1.0" encoding="UTF-8" standalone="no"?>
<!-- Created with Inkscape (http://www.inkscape.org/) -->

<svg
   width="611.17072mm"
   height="261.09485mm"
   viewBox="0 0 611.17072 261.09485"
   version="1.1"
   id="svg1"
   xml:space="preserve"
   xmlns="http://www.w3.org/2000/svg"
   xmlns:svg="http://www.w3.org/2000/svg"><defs
     id="defs1" /><g
     id="layer1"
     transform="translate(221.19841,185.51404)"><path
       style="fill:#ffffff;fill-opacity:1;stroke-width:0.188685"
       d="m 80.6776,75.545641 c -1.10205,-0.0713 -1.3751,-0.20165 -1.51497,-0.72329 -0.0938,-0.34999 -0.186193,-6.10446 -0.205215,-12.787705 -0.01902,-6.683249 -0.118445,-13.31405 -0.220939,-14.735112 l -0.186354,-2.583747 -0.934008,0.936149 c -0.513705,0.514881 -1.421856,1.547376 -2.018113,2.294429 -0.596258,0.747057 -1.835917,2.221961 -2.754798,3.27757 -0.918882,1.055613 -1.670694,2.011195 -1.670694,2.123526 0,0.112327 -0.662766,0.941156 -1.472813,1.841844 -0.810046,0.900687 -1.576654,1.90075 -1.703571,2.222361 -0.126918,0.321612 -0.810466,1.298061 -1.518998,2.169889 -0.708531,0.871823 -2.266254,3.082358 -3.461609,4.912298 -1.195354,1.829938 -2.386379,3.741058 -2.646721,4.246938 -0.260342,0.50588 -0.767712,1.01963 -1.127489,1.14166 -0.359776,0.12204 -0.849353,0.1832 -1.087948,0.13591 -0.238594,-0.0473 -1.475429,-0.77452 -2.748522,-1.61609 -1.273092,-0.84157 -2.588248,-1.8374 -2.922567,-2.21296 -0.33432,-0.37557 -0.685078,-0.90238 -0.779459,-1.17069 -0.09571,-0.27208 0.07477,-0.801048 0.385451,-1.196021 0.306378,-0.389497 1.09399,-0.923019 1.750248,-1.185599 0.656258,-0.262584 2.119428,-1.082052 3.251489,-1.821042 1.132061,-0.738987 2.901004,-2.199227 3.930985,-3.244964 1.029981,-1.045743 3.032656,-3.203279 4.450391,-4.79453 1.417734,-1.591252 3.378116,-3.751395 4.356404,-4.800328 0.978288,-1.048928 2.559865,-2.794822 3.514615,-3.879764 0.95475,-1.084942 1.947814,-2.309819 2.206809,-2.721947 0.258994,-0.412125 0.953616,-1.204997 1.543604,-1.761937 0.589988,-0.556936 1.256887,-1.364177 1.481999,-1.793869 0.251445,-0.479962 0.408875,-1.651526 0.408211,-3.037839 -8.26e-4,-1.688431 -0.135831,-2.475119 -0.536275,-3.12454 -0.294355,-0.477376 -1.172673,-1.532824 -1.951815,-2.345437 -0.779143,-0.812614 -2.327976,-2.449132 -3.441851,-3.6367 -1.113875,-1.187572 -2.862116,-3.097692 -3.884979,-4.244718 -1.022864,-1.14702 -2.085803,-2.457203 -2.362087,-2.911517 -0.276284,-0.454314 -0.741327,-1.003961 -1.03343,-1.221439 -0.292101,-0.217477 -1.030862,-0.981286 -1.64169,-1.697346 -0.610827,-0.716062 -1.717469,-2.001369 -2.459204,-2.856238 -0.741735,-0.854866 -1.944897,-2.221895 -2.673693,-3.0378393 -0.728797,-0.815945 -1.542504,-1.80544 -1.808239,-2.198876 -0.265735,-0.393438 -0.483154,-1.024718 -0.483154,-1.402844 0,-0.396039 0.380937,-1.04335 0.898552,-1.526875 l 0.898551,-0.839372 h -3.444551 c -2.293339,0 -3.560584,-0.116032 -3.791731,-0.347182 -0.242443,-0.242443 -0.345847,-1.791713 -0.342753,-5.1353969 0.0026,-2.633519 0.100079,-4.931858 0.216987,-5.10742 0.138175,-0.207498 2.490616,-0.383022 6.722218,-0.501568 3.580312,-0.100301 9.862133,-0.269707 13.959601,-0.376458 l 7.449945,-0.194092 0.002,-3.4994518 c 8.7e-4,-1.924698 0.1372,-3.987676 0.30291,-4.584395 l 0.30131,-1.084943 h 4.87386 c 3.788982,0 4.906696,0.08566 5.021516,0.384867 0.0812,0.211676 0.16537,2.256493 0.187,4.544039 0.0216,2.2875448 0.0826,4.2024148 0.13541,4.2552678 0.0529,0.05285 6.227597,0.08871 13.721654,0.07969 12.5452,-0.0151 13.67221,0.02353 14.21376,0.487232 0.54505,0.46668 0.5882,0.837033 0.5882,5.047759 0,3.7452649 -0.0799,4.6240519 -0.45464,4.9987679 -0.30963,0.309633 -0.99418,0.454644 -2.14622,0.454644 -0.93037,0 -1.89752,0.07903 -2.14923,0.175613 -0.27912,0.107109 -0.45763,0.520404 -0.45763,1.059513 0,0.486147 0.21789,1.575124 0.4842,2.419953 0.37537,1.190823 0.4124,1.693617 0.16477,2.23712 -0.19313,0.42385 -0.9852,1.0156403 -2.00312,1.4966023 -0.92604,0.437541 -2.07427,1.0763 -2.55165,1.419462 -0.47737,0.343163 -1.19344,0.787667 -1.59125,0.987786 -0.39781,0.20012 -1.89503,1.504962 -3.32716,2.899645 -1.43212,1.394688 -3.50091,3.567827 -4.597297,4.829196 -1.09639,1.261373 -3.67583,4.080213 -5.732097,6.264092 -2.36717,2.514088 -3.83816,4.317654 -4.00991,4.916501 -0.14919,0.520192 -0.26936,1.662727 -0.26704,2.538966 0.002,0.876236 0.19384,2.137413 0.42561,2.802607 0.29986,0.860636 1.32079,2.115442 3.53993,4.350851 1.715197,1.727774 4.576987,4.633641 6.359534,6.457483 1.78255,1.823846 5.23449,5.276582 7.67097,7.672754 2.43648,2.396171 5.30695,5.362227 6.37883,6.591232 1.25924,1.443841 1.94886,2.483635 1.94886,2.938435 0,0.43477 -0.24888,0.83586 -0.65097,1.0491 -0.35803,0.18988 -1.367,0.98144 -2.24216,1.75903 -1.24104,1.10269 -1.77338,1.39504 -2.41912,1.32853 -0.61535,-0.0634 -0.95811,-0.34528 -1.33487,-1.09788 -0.27881,-0.55694 -1.25006,-2.54292 -2.15833,-4.413306 -1.37833,-2.838355 -1.909,-3.623078 -3.20925,-4.745638 -0.85682,-0.739725 -1.59612,-1.511131 -1.64288,-1.714235 -0.0468,-0.203109 -1.48262,-1.810624 -3.190777,-3.572261 -1.70816,-1.761637 -3.20538,-3.208994 -3.32716,-3.216352 -0.12178,-0.0073 -0.4818,-0.345908 -0.80005,-0.752325 -0.31825,-0.406418 -1.652727,-1.818309 -2.965507,-3.137527 -1.31278,-1.319219 -2.40387,-2.250057 -2.42464,-2.068528 -0.0208,0.18153 -0.006,6.711787 0.032,14.511685 0.06,12.205247 0.008,14.329787 -0.37441,15.244677 l -0.444167,1.06305 -3.565929,0.0892 c -1.96127,0.049 -4.17091,0.05 -4.9103,0.002 z M 79.005798,24.488384 c -0.01194,-0.115365 -0.0217,-4.834203 -0.0217,-10.486305 V 3.7255317 l -6.143283,0.07808 -6.143283,0.07808 -0.184979,1.139125 c -0.101739,0.626519 -0.01299,1.961173 0.197231,2.965901 0.210217,1.004726 0.699682,2.4588453 1.087701,3.2313733 0.388018,0.772528 1.419547,2.367217 2.292286,3.543757 0.872739,1.176539 1.863964,2.387177 2.202722,2.690308 0.338758,0.303131 0.615924,0.718876 0.615924,0.923875 0,0.205004 0.243538,0.543315 0.541196,0.751804 0.297658,0.208485 1.550295,1.588479 2.783638,3.066647 1.233343,1.478173 2.366597,2.646199 2.518343,2.595617 0.151746,-0.05058 0.266137,-0.186358 0.254203,-0.301723 z m 13.484608,-2.559386 c 1.24383,-1.292293 2.399117,-2.496581 2.567307,-2.676189 0.1682,-0.179612 1.45113,-1.628499 2.85097,-3.219746 1.39983,-1.591252 2.699767,-3.023378 2.888737,-3.182502 0.18898,-0.159124 0.63609,-0.768439 0.9936,-1.35403 0.3575,-0.585592 1.09317,-1.453815 1.63482,-1.9293883 0.54164,-0.475572 1.54705,-1.628424 2.23423,-2.561891 0.68718,-0.933469 1.54095,-2.010143 1.89727,-2.392609 0.35633,-0.382468 0.64786,-0.810176 0.64786,-0.950468 0,-0.145946 -3.86807,-0.171489 -9.041187,-0.0597 -4.972657,0.107455 -9.062227,0.214239 -9.087947,0.237299 -0.0257,0.02306 -0.0703,0.627794 -0.0992,1.343856 -0.0288,0.716062 -0.0403,5.3053733 -0.0256,10.1984653 0.0148,4.893095 0.0833,8.896534 0.1522,8.896534 0.0689,0 1.14305,-1.057334 2.38687,-2.349631 z"
       id="path1" /><path
       d="m 173.99459,229.33979 c -1.67182,-2.74084 -3.41874,-7.39834 -3.88204,-10.35001 -0.46331,-2.95167 -1.9819,-7.78167 -3.37466,-10.73334 -1.39275,-2.95167 -3.68872,-6.74667 -5.10213,-8.43334 -1.41342,-1.68667 -4.44953,-6.51668 -6.74692,-10.73335 -2.29738,-4.21667 -5.83437,-9.86313 -7.85997,-12.5477 -2.02559,-2.68457 -3.6829,-5.33718 -3.6829,-5.89469 0,-0.55751 -4.19332,-6.8223 -9.31849,-13.92175 -5.12517,-7.09946 -12.55276,-16.22861 -16.50577,-20.287 -3.953,-4.0584 -11.96363,-10.25966 -17.80139,-13.78058 -6.1619,-3.71642 -12.58425,-6.42213 -15.31093,-6.45044 -2.58324,-0.0268 -6.03973,-1.0644 -7.68107,-2.30574 -2.0328,-1.5374 -2.48451,-2.75673 -1.41681,-3.82443 0.86209,-0.86209 6.34501,-3.35156 12.18426,-5.53214 5.83926,-2.18059 22.69184,-8.13925 37.45018,-13.24148 14.75835,-5.10223 27.18663,-9.80267 27.6184,-10.44543 0.43176,-0.64275 5.95177,-2.58115 12.26667,-4.30755 6.31491,-1.7264 20.79665,-5.96837 32.18167,-9.42661 11.38501,-3.45824 23.11502,-6.91179 26.06669,-7.67456 2.95167,-0.76277 6.32222,-1.40331 7.49012,-1.42343 1.22829,-0.0212 0.5819,1.14733 -1.53334,2.77183 -2.01123,1.54462 -6.41678,4.31715 -9.79012,6.16116 -3.37334,1.84401 -13.03335,5.81791 -21.46669,8.83089 -8.43334,3.01298 -20.33585,7.25759 -26.45002,9.43248 -6.11417,2.17488 -11.11668,4.55469 -11.11668,5.28846 0,0.73377 1.50112,4.23915 3.33581,7.78972 1.8347,3.55057 3.74149,8.87059 4.23732,11.82226 0.66028,3.93067 1.76823,5.49111 4.14066,5.83173 2.93091,0.42079 3.3029,-0.41622 3.90901,-8.79568 0.48817,-6.74881 1.57045,-10.21936 3.99008,-12.79493 1.82612,-1.94382 5.80193,-4.43161 8.83514,-5.52844 3.03322,-1.09682 5.81821,-1.69095 6.18887,-1.32028 0.37067,0.37066 -1.10042,4.54965 -3.26908,9.28663 -2.2395,4.89172 -4.44425,13.30365 -5.10318,19.4705 -0.63808,5.97179 -0.57696,15.74078 0.13583,21.70886 0.71278,5.96809 2.99928,17.25269 5.08111,25.0769 2.08182,7.82421 3.78513,14.67471 3.78513,15.22334 0,0.54862 -2.32686,-0.77729 -5.1708,-2.94647 -3.01484,-2.29952 -6.13533,-6.6475 -7.4841,-10.42804 -1.27231,-3.56624 -3.09557,-13.7047 -4.05168,-22.52991 -0.95612,-8.8252 -2.34499,-16.65242 -3.08638,-17.39381 -0.74139,-0.74139 -2.62878,-1.10368 -4.19419,-0.80508 -2.4968,0.47626 -2.94033,2.51745 -3.61287,16.62715 -0.50337,10.56036 -1.55159,17.26909 -3.05218,19.53424 -1.25703,1.8975 -3.54651,3.45 -5.08775,3.45 -2.64232,0 -2.62483,0.24915 0.30655,4.3659 1.70984,2.40124 5.95916,11.88875 9.44294,21.08335 3.48378,9.1946 8.08496,21.32178 10.22485,26.9493 2.52559,6.64184 3.54273,11.61828 2.89894,14.18334 -0.54547,2.17333 -2.02377,3.95151 -3.28509,3.95151 -1.26133,0 -3.66118,-2.2425 -5.333,-4.98334 z m -19.03665,-72.71122 c -0.54055,-1.40864 -0.96859,-15.86363 -0.95121,-32.1222 0.0196,-18.36237 -0.55748,-29.92511 -1.52338,-30.52207 -0.85524,-0.52857 -3.77852,0.43333 -6.49618,2.13754 -2.71766,1.70422 -9.54228,5.60748 -15.16582,8.67392 -5.62353,3.06643 -11.33872,6.80641 -12.70041,8.31106 -2.31242,2.5552 -2.16441,2.86472 2.24302,4.69033 2.59535,1.07503 8.20445,5.82564 12.46468,10.55691 4.26022,4.73128 10.24575,13.60482 13.30117,19.71899 3.05542,6.11417 6.51283,11.11668 7.68312,11.11668 1.35787,0 1.77219,-0.92676 1.14501,-2.56116 z m 270.83368,45.8529 c 0.54815,-5.70468 2.23869,-9.32156 7.70434,-16.48335 3.85116,-5.04627 11.04045,-13.32767 15.9762,-18.4031 4.93575,-5.07544 11.48944,-11.33518 14.56376,-13.91055 3.07431,-2.57536 10.39872,-7.58816 16.27647,-11.13954 l 10.6868,-6.45707 1.00572,-11.09849 c 0.71204,-7.85765 0.35239,-13.26934 -1.23164,-18.53268 -1.23055,-4.0888 -3.80051,-9.09808 -5.71103,-11.13173 -2.11475,-2.25105 -8.60022,-5.28722 -16.57816,-7.76107 -7.20747,-2.23493 -19.3145,-7.39788 -26.90451,-11.47322 -7.59,-4.07533 -15.18001,-8.99254 -16.86668,-10.92713 -1.68667,-1.93458 -5.48167,-6.51156 -8.43334,-10.17106 -2.95167,-3.6595 -5.36667,-7.35721 -5.36667,-8.21714 0,-0.85992 0.87112,-1.85386 1.93583,-2.20877 1.06471,-0.3549 4.51472,1.93971 7.66668,5.09914 3.15196,3.15943 10.56084,8.57991 16.46418,12.0455 5.90334,3.4656 15.61838,8.53099 21.58898,11.25643 5.9706,2.72545 11.61382,4.95535 12.54049,4.95535 0.92666,0 2.62305,0.9382 3.76974,2.08489 1.14668,1.14669 6.54348,3.65463 11.99286,5.5732 5.44939,1.91857 14.47984,5.77592 20.06767,8.57189 5.58783,2.79596 13.27791,7.18803 17.08906,9.76014 3.81115,2.57212 7.89879,4.67658 9.08366,4.67658 1.18486,0 2.86858,0.71428 3.74159,1.58729 1.09417,1.09417 1.3743,-0.98114 0.9017,-6.6801 -0.40137,-4.84 0.0778,-9.69376 1.15575,-11.70799 1.41311,-2.64043 2.79028,-3.25741 5.92164,-2.65296 2.24416,0.4332 9.6003,1.85106 16.34697,3.1508 6.74667,1.29974 14.41797,2.80762 17.04733,3.35085 4.25997,0.88011 4.94669,0.51197 6.30509,-3.38011 0.83843,-2.40229 3.55659,-7.57059 6.04034,-11.4851 l 4.51591,-7.1173 5.86676,3.54073 c 3.22671,1.94741 6.73998,3.20565 7.80725,2.7961 1.06728,-0.40955 2.39602,-0.008 2.95276,0.89323 0.56711,0.91761 5.89479,1.63787 12.11511,1.63787 6.10657,0 11.75835,-0.60957 12.55952,-1.3546 0.80117,-0.74503 5.90723,-2.11487 11.3468,-3.04409 7.68681,-1.31311 10.15559,-1.26753 11.08168,0.2046 0.65534,1.04174 0.89778,2.92908 0.53874,4.19409 -0.35903,1.265 -0.74959,5.75 -0.86791,9.96667 -0.11832,4.21667 -0.15382,9.90918 -0.0789,12.65001 0.0915,3.34686 0.89156,4.98334 2.43626,4.98334 1.29946,0 2.39323,-1.50081 2.51432,-3.45 0.11788,-1.8975 0.0652,-5.96984 -0.11713,-9.04964 -0.18231,-3.07979 0.68863,-7.57227 1.93541,-9.98328 1.24678,-2.411 5.73578,-7.30867 9.97557,-10.88371 4.23978,-3.57504 8.53559,-6.50007 9.54624,-6.50007 1.29192,0 1.53965,1.86299 0.8343,6.27404 -0.5518,3.45073 -2.3362,8.88681 -3.96533,12.08019 -1.62914,3.19337 -4.1069,10.36372 -5.50614,15.9341 -2.13579,8.50264 -2.27321,12.03903 -0.85631,22.03651 0.92827,6.5497 1.77036,21.27796 1.87132,32.72946 0.10095,11.4515 0.63605,23.52651 1.18909,26.83336 0.55305,3.30684 0.77722,7.95085 0.49815,10.32002 -0.28916,2.45488 -1.28417,4.05466 -2.31343,3.71955 -0.99333,-0.32341 -3.49842,-4.67682 -5.56687,-9.67425 -3.13216,-7.56736 -3.72289,-11.39303 -3.5339,-22.88623 0.12481,-7.59001 -0.51616,-20.19794 -1.42437,-28.01762 -0.90821,-7.81968 -2.31667,-14.62883 -3.12992,-15.13144 -0.81324,-0.50261 -2.5119,0.11944 -3.77479,1.38233 -1.84065,1.84065 -2.30188,7.04782 -2.32496,26.24812 -0.0203,16.86809 -0.54475,23.94908 -1.77336,23.94226 -0.95951,-0.005 -3.12457,-2.24784 -4.81124,-4.98334 -2.7762,-4.50256 -3.08969,-7.90356 -3.30977,-35.90741 -0.13371,-17.01357 -0.70011,-32.37365 -1.25867,-34.13351 -0.55856,-1.75986 -3.10078,-4.27806 -5.64939,-5.596 -2.54861,-1.31794 -4.84902,-2.17287 -5.11204,-1.89985 -0.26301,0.27302 -1.63817,9.1214 -3.0559,19.66308 -1.41773,10.54167 -2.95191,22.08814 -3.40928,25.65881 -0.45738,3.57067 -1.68656,7.20168 -2.73151,8.06891 -1.32477,1.09947 -2.37269,0.99085 -3.46168,-0.35878 -0.85898,-1.06457 -2.30632,-7.55795 -3.21633,-14.42974 -0.91,-6.87179 -1.25683,-15.85234 -0.77072,-19.95678 0.58057,-4.90196 0.11731,-9.29719 -1.35008,-12.80916 -1.79446,-4.29474 -3.48053,-5.67927 -8.57073,-7.03792 -3.48524,-0.93026 -6.69092,-1.33727 -7.12374,-0.90445 -0.43281,0.43281 -0.19042,1.54042 0.53865,2.46134 0.72907,0.92093 2.46658,6.15942 3.86113,11.6411 1.64773,6.47688 3.12339,22.74197 4.21442,46.45229 0.92338,20.06709 1.25412,36.91037 0.73498,37.42952 -0.51915,0.51915 -2.34492,-0.324 -4.05728,-1.87367 -1.71236,-1.54966 -2.86684,-3.55717 -2.56552,-4.46113 0.30132,-0.90397 -0.66277,-5.642 -2.14243,-10.52897 -1.47965,-4.88696 -3.49008,-16.61773 -4.46761,-26.06837 -0.97753,-9.45064 -2.0798,-18.73549 -2.44949,-20.63299 -0.46232,-2.37297 -1.76399,-3.45 -4.16961,-3.45 -1.9236,0 -4.32545,0.828 -5.33745,1.84 -1.01201,1.012 -1.84001,4.117 -1.84001,6.9 0,3.56999 -0.70696,5.06001 -2.4008,5.06001 -1.32044,0 -3.73545,-0.71428 -5.36667,-1.58728 -1.63123,-0.87301 -2.95713,-3.11551 -2.94645,-4.98334 0.0107,-1.86783 2.08069,-7.4608 4.60001,-12.42881 2.51932,-4.96801 4.58058,-9.90527 4.58058,-10.97168 0,-1.46651 -3.08222,-1.75751 -12.65001,-1.19436 -6.95751,0.40952 -13.51251,1.01262 -14.56668,1.34022 -1.05417,0.3276 -1.91667,1.6523 -1.91667,2.94377 0,1.29147 1.15317,2.34812 2.5626,2.34812 1.40943,0 3.7779,1.09984 5.26326,2.44407 1.48537,1.34424 2.32214,3.43049 1.8595,4.63611 -0.61408,1.60028 -2.26666,1.92462 -6.12161,1.20142 l -5.28046,-0.99062 0.47502,7.47119 0.47502,7.47119 8.32575,1.0161 c 6.16447,0.75233 9.04139,1.94644 11.08258,4.6 1.51626,1.97115 2.7684,4.27391 2.78254,5.11724 0.0154,0.91862 -6.73277,1.61541 -16.83258,1.73806 l -16.8583,0.20472 V 129.651 112.73618 l -3.45,5.11211 c -1.8975,2.81167 -6.55501,7.05636 -10.35001,9.43265 -3.795,2.37629 -8.85148,5.52538 -11.23661,6.99798 -2.38513,1.4726 -7.90513,5.2443 -12.26668,8.38155 -4.36154,3.13725 -8.90297,6.54508 -10.09206,7.57296 -1.1891,1.02788 -11.88411,8.33797 -23.76669,16.24464 -11.88259,7.90668 -24.16278,17.26386 -27.28933,20.79373 -3.12654,3.52988 -5.71404,6.90087 -5.75,7.49109 -0.036,0.59022 -2.18427,4.21273 -4.77402,8.05001 -2.58975,3.83728 -5.09254,6.97687 -5.56175,6.97687 -0.46922,0 -0.53712,-3.28874 -0.15089,-7.3083 z m 87.03666,-83.32395 c 4.09387,-5.09428 4.58668,-6.49821 2.96634,-8.4506 -1.06874,-1.28776 -4.57682,-3.68497 -7.79574,-5.32714 l -5.85259,-2.98576 v 9.87243 c 0,5.42984 0.40211,10.9203 0.89357,12.20102 0.49146,1.28073 1.79026,1.9845 2.88623,1.56393 1.09597,-0.42056 4.20195,-3.51381 6.90219,-6.87388 z m 79.78476,-8.35833 c 0,-1.31477 -0.69,-1.96405 -1.53333,-1.44284 -0.84334,0.52121 -1.53334,1.59693 -1.53334,2.3905 0,0.79356 0.69,1.44284 1.53334,1.44284 0.84333,0 1.53333,-1.07572 1.53333,-2.3905 z m -355.844,93.24058 c -0.12672,-1.05417 -0.26298,-3.12417 -0.30281,-4.60001 -0.0398,-1.47583 0.48923,-5.43398 1.17569,-8.79588 0.68647,-3.3619 5.13401,-11.98691 9.88342,-19.16668 4.74942,-7.17978 9.64452,-15.0561 10.87802,-17.50294 1.43629,-2.84911 11.69494,-12.18102 7.864,-19.47374 l -5.62128,-10.70089 -6.13334,-5.32624 -6.13334,-5.32624 5.06513,-4.1954 c 2.78582,-2.30747 9.65384,-6.68695 15.26226,-9.73217 5.60843,-3.04522 10.43961,-6.26417 10.73596,-7.15322 0.29635,-0.88905 -1.05166,-2.06338 -2.99559,-2.60961 -1.94392,-0.54624 -5.08691,-1.75639 -6.98441,-2.68922 -1.8975,-0.93284 -3.45,-2.95947 -3.45,-4.50364 0,-2.08517 1.16103,-2.80756 4.51236,-2.80756 2.48179,0 6.87813,1.39584 9.76962,3.10186 2.8915,1.70603 11.03845,5.25426 18.10433,7.88496 7.06589,2.63069 16.29372,5.59877 20.50629,6.59571 7.24075,1.71359 7.72418,2.1415 8.84787,7.83173 0.65374,3.3105 1.17345,8.4341 1.1549,11.38577 -0.0186,2.95167 -0.62284,9.01009 -1.34288,13.46317 -0.72481,4.48267 -0.72368,8.45833 0.002,8.90717 0.72143,0.44586 1.31169,-0.61942 1.31169,-2.3673 0,-1.74789 0.6669,-4.37611 1.48199,-5.8405 0.81509,-1.46439 3.66903,-8.08103 6.3421,-14.70363 4.77738,-11.83612 4.81601,-12.1336 2.26913,-17.47446 -1.69284,-3.54991 -2.06987,-5.95448 -1.08767,-6.93668 0.9822,-0.9822 3.38232,-0.34202 6.92386,1.84677 2.9813,1.84254 7.43773,5.89754 9.90317,9.0111 2.46545,3.11356 5.23293,8.42102 6.14996,11.79436 0.91703,3.37333 2.74279,13.37834 4.05724,22.23335 1.31445,8.85501 4.19936,23.44338 6.41091,32.4186 l 4.02101,16.3186 -3.06949,5.91476 c -1.68822,3.25312 -3.69184,5.79424 -4.4525,5.64693 -0.76065,-0.1473 -1.84638,-2.2173 -2.41271,-4.6 -0.56634,-2.3827 -1.71589,-7.43718 -2.55456,-11.23219 -0.83867,-3.795 -2.69648,-11.04001 -4.12847,-16.10001 -1.43199,-5.06 -3.76689,-15.06501 -5.18867,-22.23335 -2.26487,-11.41902 -3.01335,-13.09541 -6.0429,-13.53439 -1.90182,-0.27557 -4.36083,0.24837 -5.46447,1.16431 -1.10364,0.91594 -3.55337,6.66141 -5.44384,12.76772 -1.89047,6.1063 -4.41543,12.65487 -5.61101,14.55237 -1.19557,1.8975 -3.14637,3.45 -4.3351,3.45 -1.18873,0 -2.60511,-1.39824 -3.14751,-3.1072 -0.54241,-1.70896 -2.05254,-2.91646 -3.35585,-2.68334 -2.04011,0.36492 -2.44759,-3.08035 -2.93003,-24.77302 -0.3878,-17.43705 -1.1281,-25.54777 -2.40384,-26.33622 -1.0139,-0.62663 -3.95561,-0.27421 -6.53712,0.78316 l -4.69365,1.92247 0.56822,21.47344 c 0.31252,11.81039 0.0935,22.96908 -0.48666,24.79708 -0.58019,1.82799 -1.93263,3.32363 -3.00543,3.32363 -1.07281,0 -2.82549,-1.8975 -3.89485,-4.21667 -1.06936,-2.31917 -2.60393,-8.01167 -3.41014,-12.65001 -0.80621,-4.63834 -2.0148,-14.85662 -2.68576,-22.70728 -0.67095,-7.85067 -1.89292,-14.94695 -2.71549,-15.76951 -0.97186,-0.97187 -4.7988,0.71025 -10.92883,4.80373 -5.1883,3.46461 -9.79484,6.88432 -10.23676,7.59935 -0.44191,0.71503 2.65383,4.57344 6.87943,8.57424 4.86216,4.60349 7.68292,8.56182 7.68292,10.78134 0,1.92894 -0.84348,5.43713 -1.87439,7.79598 -1.03092,2.35885 -3.94477,7.72017 -6.47523,11.91404 -2.53046,4.19388 -5.65448,8.91901 -6.94228,10.5003 -1.2878,1.58128 -5.5291,6.08494 -9.42511,10.00812 -4.74092,4.77398 -7.95112,9.79539 -9.70657,15.18306 -1.4426,4.42751 -3.29077,8.05001 -4.10704,8.05001 -0.81627,0 -2.45881,2.2425 -3.65009,4.98334 -1.19128,2.74083 -2.26964,4.12084 -2.39635,3.06667 z m 112.04378,-87.78341 c 0,-0.84334 -0.69,-1.53334 -1.53333,-1.53334 -0.84334,0 -1.53334,0.69 -1.53334,1.53334 0,0.84333 0.69,1.53333 1.53334,1.53333 0.84333,0 1.53333,-0.69 1.53333,-1.53333 z m -147.08884,58.8266 c -2.52992,-3.21627 -3.18411,-6.26485 -3.20813,-14.95001 -0.0166,-6.00044 -1.06154,-16.4299 -2.32211,-23.17657 -1.26057,-6.74668 -2.71825,-15.83806 -3.23929,-20.20307 -0.5951,-4.98542 -0.15928,-10.61389 1.17211,-15.1373 1.1657,-3.9605 3.7175,-8.45927 5.67067,-9.99725 3.42232,-2.69484 3.72843,-2.69633 8.43334,-0.0412 2.68517,1.51536 7.51639,4.54938 10.73603,6.74227 3.21965,2.19289 7.29326,5.81691 9.05247,8.05338 l 3.19856,4.06632 -4.92271,4.60067 c -4.17263,3.89967 -4.7762,5.33578 -3.96117,9.42507 0.52886,2.65341 1.89939,7.92939 3.04563,11.72439 1.14624,3.795 2.54935,9.31501 3.11803,12.26668 0.56867,2.95167 3.03226,9.60532 5.47463,14.78589 2.44238,5.18058 4.44068,9.83808 4.44068,10.35001 0,0.51193 -1.59591,0.93079 -3.54646,0.93079 -1.95056,0 -5.41514,-1.95048 -7.69908,-4.3344 -3.09298,-3.22838 -5.15564,-8.41261 -8.08342,-20.31668 -2.16195,-8.79026 -5.30865,-18.2248 -6.99266,-20.96563 -1.68402,-2.74084 -3.37436,-4.98334 -3.75632,-4.98334 -0.38195,0 -0.63144,10.86751 -0.55442,24.15002 0.077,13.28251 -0.0471,25.70252 -0.27572,27.60003 -0.22866,1.8975 -0.90782,3.45 -1.50923,3.45 -0.60141,0 -2.52355,-1.81805 -4.27143,-4.04012 z m 13.73243,-64.98333 c 1.59982,-0.8562 2.5515,-2.48774 2.11484,-3.62565 -0.43665,-1.1379 -2.53267,-2.86115 -4.6578,-3.82942 -2.12514,-0.96828 -4.50218,-1.36602 -5.28232,-0.88387 -0.78014,0.48215 -1.41844,2.90592 -1.41844,5.38615 0,3.53513 0.68441,4.50951 3.16748,4.50951 1.74211,0 4.47642,-0.70052 6.07624,-1.55672 z m 21.70483,51.39637 c -0.95905,-2.10489 -2.17754,-14.3524 -2.70775,-27.21669 -0.53021,-12.86429 -1.1421,-25.80463 -1.35975,-28.75629 -0.21765,-2.95167 0.28457,-6.22918 1.11604,-7.28334 0.83148,-1.05417 2.97979,-1.90611 4.77403,-1.89319 1.79424,0.0129 4.15932,0.5925 5.25573,1.28796 1.09641,0.69547 2.04909,2.58241 2.11706,4.19319 0.068,1.61079 -0.71723,13.16191 -1.7449,25.66916 -1.46987,17.88901 -1.46948,23.70375 0.002,27.25582 1.60192,3.86738 1.47713,4.94985 -0.86956,7.54291 -1.50693,1.66515 -3.21218,3.02754 -3.78944,3.02754 -0.57726,0 -1.83424,-1.72218 -2.7933,-3.82707 z m 161.8938,-2.68961 c -1.23412,-1.8975 -3.13268,-6.21 -4.21901,-9.58334 -1.08634,-3.37333 -3.77846,-9.58334 -5.9825,-13.80001 l -4.00734,-7.66667 -0.45746,11.46118 c -0.31082,7.78713 -1.2367,12.32223 -2.88826,14.14719 -1.33694,1.4773 -3.03904,2.31009 -3.78245,1.85064 -0.7434,-0.45945 -2.46324,-3.37568 -3.82187,-6.48051 -1.8027,-4.11967 -2.55604,-11.2389 -2.7878,-26.34517 -0.29253,-19.06771 -0.64001,-21.33079 -4.40654,-28.69905 -2.24894,-4.39947 -4.08897,-10.13569 -4.08897,-12.74716 0,-4.40855 0.34663,-4.71377 4.84686,-4.26765 4.31043,0.42731 5.13496,1.329 7.44995,8.14716 1.43171,4.21667 4.75778,12.15167 7.39129,17.63335 2.63351,5.48167 5.66353,11.00167 6.73339,12.26667 1.06986,1.265 3.11237,3.21352 4.53891,4.33004 2.3148,1.81174 2.78551,1.31774 4.37738,-4.59403 0.98102,-3.64323 2.08864,-8.00675 2.46138,-9.69671 0.37274,-1.68995 1.29603,-9.2631 2.05176,-16.82922 1.01965,-10.20842 2.06544,-14.26213 4.05465,-15.71668 1.47433,-1.07806 3.626,-1.9601 4.78149,-1.9601 1.61627,0 1.88365,1.68006 1.15915,7.28334 -0.51795,4.00583 -1.65635,12.11334 -2.52978,18.01668 -0.87343,5.90334 -2.26467,14.18335 -3.09166,18.40002 -0.82699,4.21667 -1.90422,16.80918 -2.39384,27.98335 -0.48962,11.17418 -1.39752,20.31669 -2.01755,20.31669 -0.62002,0 -2.13706,-1.5525 -3.37118,-3.45001 z"
       style="fill:#ffffff;fill-opacity:1"
       id="path1-6"
       transform="translate(-295.94986,-230.0444)" /></g></svg>
